<svg width="151" height="154" viewBox="0 0 151 154" fill="none" xmlns="http://www.w3.org/2000/svg">
<path d="M148.018 78.7239C150.922 100.264 142.819 118.383 128.928 131.173C115 143.998 95.2437 151.457 75 151.457C34.6832 151.457 2 118.773 2 78.4567C2 58.4161 13.9274 34.8896 29.1842 19.1925C36.797 11.36 45.0818 5.6437 52.8988 3.24691C60.6381 0.873937 67.8074 1.76419 73.6748 6.9547C80.3369 12.8482 88.0497 17.5878 95.8517 22.045C97.7983 23.157 99.7465 24.2495 101.687 25.3377C107.579 28.6419 113.401 31.9064 118.892 35.5593C133.371 45.1912 145.123 57.2512 148.018 78.7239Z" stroke="#7E7ECC" stroke-width="4"/>
<circle cx="68.5" cy="31.4561" r="11" stroke="#7E7ECC" stroke-width="2"/>
<circle cx="30.5" cy="51.4561" r="8" fill="#FF0000"/>
<circle cx="27.5" cy="87.4561" r="8" fill="#00FF00"/>
<circle cx="48.5" cy="115.456" r="8" fill="#0000FF"/>
<circle cx="80.5" cy="131.456" r="8" fill="#FAFF00"/>
<circle cx="114.5" cy="120.456" r="8" fill="#FFA500"/>
<circle cx="102.5" cy="55.4561" r="11" stroke="#7E7ECC" stroke-width="2"/>
</svg>
