<svg xmlns="http://www.w3.org/2000/svg" xmlns:xlink="http://www.w3.org/1999/xlink" version="1.1" x="0px" y="0px" viewBox="0 0 100 125" style="enable-background:new 0 0 100 100;" xml:space="preserve" stroke="#fff"><path d="M42.9,68.3v0.6c0,2.2-0.8,4.3-2.2,5.8h18.7c-1.4-1.6-2.2-3.6-2.2-5.8v-0.6H42.9z"/><path d="M10,62.9c0,1.8,1.4,3.2,3.2,3.2h73.6c1.8,0,3.2-1.4,3.2-3.2v-5.1H10V62.9z"/><path d="M86.8,18H13.2c-1.8,0-3.2,1.4-3.2,3.2v34.5h80V21.2C90,19.4,88.6,18,86.8,18z M33.7,33c-0.2,0.2-0.5,0.3-0.7,0.3  c-0.3,0-0.5-0.1-0.8-0.3c-0.4-0.4-0.4-1.1,0-1.5l2-2l-2-2c-0.4-0.4-0.4-1.1,0-1.5c0.4-0.4,1.1-0.4,1.5,0l2,2l2-2  c0.4-0.4,1.1-0.4,1.5,0c0.4,0.4,0.4,1.1,0,1.5l-2,2l2,2c0.4,0.4,0.4,1.1,0,1.5c-0.2,0.2-0.5,0.3-0.7,0.3c-0.3,0-0.5-0.1-0.8-0.3  l-2-2L33.7,33z M63.5,47.9c-0.2,0.1-0.4,0.2-0.6,0.2c-0.4,0-0.7-0.2-0.9-0.5c-2.5-3.8-7.1-6.2-12-6.2c-4.9,0-9.5,2.4-12,6.2  c-0.3,0.5-1,0.6-1.5,0.3c-0.5-0.3-0.6-1-0.3-1.5c2.8-4.4,8.1-7.2,13.8-7.2c5.7,0,10.9,2.7,13.8,7.2C64.1,46.9,64,47.6,63.5,47.9z   M67.8,31.5c0.4,0.4,0.4,1.1,0,1.5c-0.2,0.2-0.5,0.3-0.7,0.3c-0.3,0-0.5-0.1-0.8-0.3l-2-2l-2,2c-0.2,0.2-0.5,0.3-0.7,0.3  c-0.3,0-0.5-0.1-0.8-0.3c-0.4-0.4-0.4-1.1,0-1.5l2-2l-2-2c-0.4-0.4-0.4-1.1,0-1.5s1.1-0.4,1.5,0l2,2l2-2c0.4-0.4,1.1-0.4,1.5,0  c0.4,0.4,0.4,1.1,0,1.5l-2,2L67.8,31.5z"/><path d="M31.4,79.2v0.7H16.7c-0.6,0-1.1,0.5-1.1,1.1s0.5,1.1,1.1,1.1h57.6c0.6,0,1.1-0.5,1.1-1.1s-0.5-1.1-1.1-1.1h-5.7v-0.7  c0-1.3-1-2.3-2.3-2.3H33.7C32.5,76.9,31.4,77.9,31.4,79.2z"/><path d="M83.2,82c0.6,0,1.1-0.5,1.1-1.1s-0.5-1.1-1.1-1.1h-3.9c-0.6,0-1.1,0.5-1.1,1.1s0.5,1.1,1.1,1.1H83.2z"/><text x="0" y="115" fill="#000000" font-size="5px" font-weight="bold" font-family="'Helvetica Neue', Helvetica, Arial-Unicode, Arial, Sans-serif"></text><text x="0" y="120" fill="#000000" font-size="5px" font-weight="bold" font-family="'Helvetica Neue', Helvetica, Arial-Unicode, Arial, Sans-serif"></text></svg>