<svg width="379" height="100" viewBox="0 0 379 100" fill="none" xmlns="http://www.w3.org/2000/svg">
<rect width="100" height="100" fill="black"/>
<path fill-rule="evenodd" clip-rule="evenodd" d="M56 27C61.5228 27 66 22.5228 66 17C66 11.4772 61.5228 7 56 7C50.4772 7 46 11.4772 46 17C46 22.5228 50.4772 27 56 27ZM35 33H46H48H66V93H46V51H35V33Z" fill="#D9D9D9"/>
<path d="M104.947 74V39.0909H110.31V74H104.947ZM107.674 33.2727C106.628 33.2727 105.727 32.9167 104.969 32.2045C104.227 31.4924 103.856 30.6364 103.856 29.6364C103.856 28.6364 104.227 27.7803 104.969 27.0682C105.727 26.3561 106.628 26 107.674 26C108.719 26 109.613 26.3561 110.356 27.0682C111.113 27.7803 111.492 28.6364 111.492 29.6364C111.492 30.6364 111.113 31.4924 110.356 32.2045C109.613 32.9167 108.719 33.2727 107.674 33.2727ZM131.898 53V74H126.534V39.0909H131.716V44.5455H132.17C132.989 42.7727 134.231 41.3485 135.898 40.2727C137.564 39.1818 139.716 38.6364 142.352 38.6364C144.716 38.6364 146.784 39.1212 148.557 40.0909C150.33 41.0455 151.708 42.5 152.693 44.4545C153.678 46.3939 154.17 48.8485 154.17 51.8182V74H148.807V52.1818C148.807 49.4394 148.095 47.303 146.67 45.7727C145.246 44.2273 143.292 43.4545 140.807 43.4545C139.095 43.4545 137.564 43.8258 136.216 44.5682C134.883 45.3106 133.83 46.3939 133.057 47.8182C132.284 49.2424 131.898 50.9697 131.898 53ZM195.099 46.9091L190.281 48.2727C189.978 47.4697 189.531 46.6894 188.94 45.9318C188.364 45.1591 187.576 44.5227 186.576 44.0227C185.576 43.5227 184.296 43.2727 182.735 43.2727C180.599 43.2727 178.819 43.7652 177.394 44.75C175.985 45.7197 175.281 46.9545 175.281 48.4545C175.281 49.7879 175.766 50.8409 176.735 51.6136C177.705 52.3864 179.22 53.0303 181.281 53.5455L186.463 54.8182C189.584 55.5758 191.909 56.7348 193.44 58.2955C194.97 59.8409 195.735 61.8333 195.735 64.2727C195.735 66.2727 195.159 68.0606 194.008 69.6364C192.872 71.2121 191.281 72.4545 189.235 73.3636C187.19 74.2727 184.811 74.7273 182.099 74.7273C178.538 74.7273 175.591 73.9545 173.258 72.4091C170.925 70.8636 169.447 68.6061 168.826 65.6364L173.917 64.3636C174.402 66.2424 175.319 67.6515 176.667 68.5909C178.031 69.5303 179.811 70 182.008 70C184.508 70 186.493 69.4697 187.963 68.4091C189.447 67.3333 190.19 66.0455 190.19 64.5455C190.19 63.3333 189.766 62.3182 188.917 61.5C188.069 60.6667 186.766 60.0455 185.008 59.6364L179.19 58.2727C175.993 57.5152 173.644 56.3409 172.144 54.75C170.659 53.1439 169.917 51.1364 169.917 48.7273C169.917 46.7576 170.47 45.0152 171.576 43.5C172.697 41.9848 174.22 40.7955 176.144 39.9318C178.084 39.0682 180.281 38.6364 182.735 38.6364C186.19 38.6364 188.902 39.3939 190.872 40.9091C192.856 42.4242 194.266 44.4242 195.099 46.9091ZM210.209 74V39.0909H215.573V74H210.209ZM212.936 33.2727C211.891 33.2727 210.989 32.9167 210.232 32.2045C209.489 31.4924 209.118 30.6364 209.118 29.6364C209.118 28.6364 209.489 27.7803 210.232 27.0682C210.989 26.3561 211.891 26 212.936 26C213.982 26 214.876 26.3561 215.618 27.0682C216.376 27.7803 216.755 28.6364 216.755 29.6364C216.755 30.6364 216.376 31.4924 215.618 32.2045C214.876 32.9167 213.982 33.2727 212.936 33.2727ZM245.888 87.8182C243.297 87.8182 241.069 87.4848 239.206 86.8182C237.342 86.1667 235.789 85.303 234.547 84.2273C233.319 83.1667 232.342 82.0303 231.615 80.8182L235.888 77.8182C236.372 78.4545 236.986 79.1818 237.728 80C238.471 80.8333 239.486 81.553 240.774 82.1591C242.077 82.7803 243.781 83.0909 245.888 83.0909C248.706 83.0909 251.031 82.4091 252.865 81.0455C254.698 79.6818 255.615 77.5455 255.615 74.6364V67.5455H255.16C254.766 68.1818 254.206 68.9697 253.478 69.9091C252.766 70.8333 251.736 71.6591 250.388 72.3864C249.054 73.0985 247.251 73.4545 244.978 73.4545C242.16 73.4545 239.63 72.7879 237.388 71.4545C235.16 70.1212 233.395 68.1818 232.092 65.6364C230.804 63.0909 230.16 60 230.16 56.3636C230.16 52.7879 230.789 49.6742 232.047 47.0227C233.304 44.3561 235.054 42.2955 237.297 40.8409C239.539 39.3712 242.13 38.6364 245.069 38.6364C247.342 38.6364 249.145 39.0152 250.478 39.7727C251.827 40.5152 252.857 41.3636 253.569 42.3182C254.297 43.2576 254.857 44.0303 255.251 44.6364H255.797V39.0909H260.978V75C260.978 78 260.297 80.4394 258.933 82.3182C257.584 84.2121 255.766 85.5985 253.478 86.4773C251.206 87.3712 248.675 87.8182 245.888 87.8182ZM245.706 68.6364C247.857 68.6364 249.675 68.1439 251.16 67.1591C252.645 66.1742 253.774 64.7576 254.547 62.9091C255.319 61.0606 255.706 58.8485 255.706 56.2727C255.706 53.7576 255.327 51.5379 254.569 49.6136C253.812 47.6894 252.691 46.1818 251.206 45.0909C249.721 44 247.888 43.4545 245.706 43.4545C243.433 43.4545 241.539 44.0303 240.024 45.1818C238.524 46.3333 237.395 47.8788 236.638 49.8182C235.895 51.7576 235.524 53.9091 235.524 56.2727C235.524 58.697 235.903 60.8409 236.66 62.7045C237.433 64.553 238.569 66.0076 240.069 67.0682C241.584 68.1136 243.463 68.6364 245.706 68.6364ZM282.56 53V74H277.197V27.4545H282.56V44.5455H283.015C283.833 42.7424 285.06 41.3106 286.697 40.25C288.348 39.1742 290.545 38.6364 293.288 38.6364C295.666 38.6364 297.75 39.1136 299.538 40.0682C301.325 41.0076 302.712 42.4545 303.697 44.4091C304.697 46.3485 305.197 48.8182 305.197 51.8182V74H299.833V52.1818C299.833 49.4091 299.113 47.2652 297.674 45.75C296.25 44.2197 294.272 43.4545 291.742 43.4545C289.984 43.4545 288.409 43.8258 287.015 44.5682C285.636 45.3106 284.545 46.3939 283.742 47.8182C282.954 49.2424 282.56 50.9697 282.56 53ZM336.591 39.0909V43.6364H318.5V39.0909H336.591ZM323.773 30.7273H329.136V64C329.136 65.5152 329.356 66.6515 329.795 67.4091C330.25 68.1515 330.826 68.6515 331.523 68.9091C332.235 69.1515 332.985 69.2727 333.773 69.2727C334.364 69.2727 334.848 69.2424 335.227 69.1818C335.606 69.1061 335.909 69.0455 336.136 69L337.227 73.8182C336.864 73.9545 336.356 74.0909 335.705 74.2273C335.053 74.3788 334.227 74.4545 333.227 74.4545C331.712 74.4545 330.227 74.1288 328.773 73.4773C327.333 72.8258 326.136 71.8333 325.182 70.5C324.242 69.1667 323.773 67.4848 323.773 65.4545V30.7273ZM375.161 46.9091L370.343 48.2727C370.04 47.4697 369.593 46.6894 369.002 45.9318C368.427 45.1591 367.639 44.5227 366.639 44.0227C365.639 43.5227 364.358 43.2727 362.798 43.2727C360.661 43.2727 358.881 43.7652 357.457 44.75C356.048 45.7197 355.343 46.9545 355.343 48.4545C355.343 49.7879 355.828 50.8409 356.798 51.6136C357.767 52.3864 359.283 53.0303 361.343 53.5455L366.525 54.8182C369.646 55.5758 371.972 56.7348 373.502 58.2955C375.033 59.8409 375.798 61.8333 375.798 64.2727C375.798 66.2727 375.222 68.0606 374.07 69.6364C372.934 71.2121 371.343 72.4545 369.298 73.3636C367.252 74.2727 364.873 74.7273 362.161 74.7273C358.601 74.7273 355.654 73.9545 353.32 72.4091C350.987 70.8636 349.51 68.6061 348.889 65.6364L353.98 64.3636C354.464 66.2424 355.381 67.6515 356.73 68.5909C358.093 69.5303 359.873 70 362.07 70C364.57 70 366.555 69.4697 368.025 68.4091C369.51 67.3333 370.252 66.0455 370.252 64.5455C370.252 63.3333 369.828 62.3182 368.98 61.5C368.131 60.6667 366.828 60.0455 365.07 59.6364L359.252 58.2727C356.055 57.5152 353.707 56.3409 352.207 54.75C350.722 53.1439 349.98 51.1364 349.98 48.7273C349.98 46.7576 350.533 45.0152 351.639 43.5C352.76 41.9848 354.283 40.7955 356.207 39.9318C358.146 39.0682 360.343 38.6364 362.798 38.6364C366.252 38.6364 368.964 39.3939 370.934 40.9091C372.919 42.4242 374.328 44.4242 375.161 46.9091Z" fill="white"/>
</svg>
