<svg width="124" height="49" viewBox="0 0 124 49" fill="none" xmlns="http://www.w3.org/2000/svg">
<path d="M5.52775 16.512C4.29042 16.512 3.29842 16.1813 2.55175 15.52C1.80508 14.8587 1.43175 14.0267 1.43175 13.024C1.43175 12 1.80508 11.1573 2.55175 10.496C3.29842 9.81333 4.29042 9.472 5.52775 9.472C6.74375 9.472 7.72508 9.81333 8.47175 10.496C9.21842 11.1573 9.59175 12 9.59175 13.024C9.59175 14.0267 9.21842 14.8587 8.47175 15.52C7.72508 16.1813 6.74375 16.512 5.52775 16.512ZM9.04775 17.952V36H1.94375V17.952H9.04775Z" fill="black"/>
<path d="M22.5838 17.824C24.6531 17.824 26.2638 18.5173 27.4158 19.904C28.5891 21.2907 29.1758 23.168 29.1758 25.536V36H22.1038V26.432C22.1038 25.5787 21.8691 24.9067 21.3998 24.416C20.9518 23.904 20.3438 23.648 19.5758 23.648C18.7864 23.648 18.1678 23.904 17.7198 24.416C17.2718 24.9067 17.0478 25.5787 17.0478 26.432V36H9.94375V17.952H17.0478V20.704C17.6024 19.8507 18.3384 19.1573 19.2558 18.624C20.1944 18.0907 21.3038 17.824 22.5838 17.824Z" fill="black"/>
<path d="M36.8664 36.224C35.1597 36.224 33.645 35.9467 32.3224 35.392C31.021 34.8373 29.9864 34.0693 29.2184 33.088C28.4504 32.1067 28.013 30.9973 27.9064 29.76H34.7224C34.8077 30.2933 35.0317 30.688 35.3944 30.944C35.7784 31.2 36.2584 31.328 36.8344 31.328C37.197 31.328 37.485 31.2533 37.6984 31.104C37.9117 30.9333 38.0184 30.7307 38.0184 30.496C38.0184 30.0907 37.7944 29.8027 37.3464 29.632C36.8984 29.4613 36.141 29.2693 35.0744 29.056C33.773 28.8 32.6957 28.5227 31.8424 28.224C31.0104 27.9253 30.2744 27.4133 29.6344 26.688C29.0157 25.9627 28.7064 24.96 28.7064 23.68C28.7064 22.5707 28.9944 21.568 29.5704 20.672C30.1677 19.7547 31.0424 19.04 32.1944 18.528C33.3464 17.9947 34.7437 17.728 36.3864 17.728C38.8184 17.728 40.717 18.3253 42.0824 19.52C43.469 20.7147 44.301 22.272 44.5784 24.192H38.2744C38.1677 23.7013 37.9437 23.328 37.6024 23.072C37.261 22.7947 36.8024 22.656 36.2264 22.656C35.8637 22.656 35.5864 22.7307 35.3944 22.88C35.2024 23.008 35.1064 23.2107 35.1064 23.488C35.1064 23.8507 35.3304 24.128 35.7784 24.32C36.2264 24.4907 36.941 24.672 37.9224 24.864C39.2237 25.12 40.3224 25.408 41.2184 25.728C42.1144 26.048 42.893 26.6027 43.5544 27.392C44.2157 28.16 44.5464 29.2267 44.5464 30.592C44.5464 31.6587 44.237 32.6187 43.6184 33.472C42.9997 34.3253 42.1037 34.9973 40.9304 35.488C39.7784 35.9787 38.4237 36.224 36.8664 36.224Z" fill="black"/>
<path d="M47.5278 16.512C46.2904 16.512 45.2984 16.1813 44.5518 15.52C43.8051 14.8587 43.4318 14.0267 43.4318 13.024C43.4318 12 43.8051 11.1573 44.5518 10.496C45.2984 9.81333 46.2904 9.472 47.5278 9.472C48.7438 9.472 49.7251 9.81333 50.4718 10.496C51.2184 11.1573 51.5918 12 51.5918 13.024C51.5918 14.0267 51.2184 14.8587 50.4718 15.52C49.7251 16.1813 48.7438 16.512 47.5278 16.512ZM51.0478 17.952V36H43.9438V17.952H51.0478Z" fill="black"/>
<path d="M58.221 16.728C59.3943 16.728 60.4077 16.9733 61.261 17.464C62.1143 17.9333 62.765 18.584 63.213 19.416V16.952H70.285V34.68C70.285 36.3653 69.9757 37.9013 69.357 39.288C68.7383 40.6747 67.7357 41.784 66.349 42.616C64.9837 43.448 63.2237 43.864 61.069 43.864C58.1677 43.864 55.8637 43.1813 54.157 41.816C52.4717 40.472 51.5117 38.6373 51.277 36.312H58.253C58.445 37.2507 59.213 37.72 60.557 37.72C61.389 37.72 62.0397 37.5067 62.509 37.08C62.9783 36.6533 63.213 35.8533 63.213 34.68V32.536C62.765 33.368 62.1143 34.0293 61.261 34.52C60.4077 34.9893 59.3943 35.224 58.221 35.224C56.813 35.224 55.5437 34.8613 54.413 34.136C53.2823 33.3893 52.3863 32.3227 51.725 30.936C51.085 29.528 50.765 27.8747 50.765 25.976C50.765 24.0773 51.085 22.4347 51.725 21.048C52.3863 19.64 53.2823 18.5733 54.413 17.848C55.5437 17.1013 56.813 16.728 58.221 16.728ZM63.213 25.976C63.213 25.016 62.9677 24.2693 62.477 23.736C61.9863 23.2027 61.357 22.936 60.589 22.936C59.821 22.936 59.1917 23.2027 58.701 23.736C58.2103 24.2693 57.965 25.016 57.965 25.976C57.965 26.936 58.2103 27.6827 58.701 28.216C59.1917 28.7493 59.821 29.016 60.589 29.016C61.357 29.016 61.9863 28.7493 62.477 28.216C62.9677 27.6827 63.213 26.936 63.213 25.976Z" fill="black"/>
<path d="M83.5838 17.824C85.6531 17.824 87.2638 18.5173 88.4158 19.904C89.5891 21.2907 90.1758 23.168 90.1758 25.536V36H83.1038V26.432C83.1038 25.5787 82.8691 24.9067 82.3998 24.416C81.9518 23.904 81.3438 23.648 80.5758 23.648C79.7864 23.648 79.1678 23.904 78.7198 24.416C78.2718 24.9067 78.0478 25.5787 78.0478 26.432V36H70.9438V12.32H78.0478V20.704C78.6024 19.8507 79.3384 19.1573 80.2558 18.624C81.1944 18.0907 82.3038 17.824 83.5838 17.824Z" fill="black"/>
<path d="M90.1367 29.952V36H92.8247C97.7741 36 100.249 33.536 100.249 28.608V23.872H102.489V17.952H100.249V13.6H93.1447V17.952H90.2007V23.872H93.1447V28.736C93.1447 29.1627 93.0487 29.472 92.8567 29.664C92.6434 29.856 92.3021 29.952 91.8327 29.952H90.1367Z" fill="black"/>
<path d="M108.866 35.224C107.16 35.224 105.645 34.9467 104.322 34.392C103.021 33.8373 101.986 33.0693 101.218 32.088C100.45 31.1067 100.013 29.9973 99.9064 28.76H106.722C106.808 29.2933 107.032 29.688 107.394 29.944C107.778 30.2 108.258 30.328 108.834 30.328C109.197 30.328 109.485 30.2533 109.698 30.104C109.912 29.9333 110.018 29.7307 110.018 29.496C110.018 29.0907 109.794 28.8027 109.346 28.632C108.898 28.4613 108.141 28.2693 107.074 28.056C105.773 27.8 104.696 27.5227 103.842 27.224C103.01 26.9253 102.274 26.4133 101.634 25.688C101.016 24.9627 100.706 23.96 100.706 22.68C100.706 21.5707 100.994 20.568 101.57 19.672C102.168 18.7547 103.042 18.04 104.194 17.528C105.346 16.9947 106.744 16.728 108.386 16.728C110.818 16.728 112.717 17.3253 114.082 18.52C115.469 19.7147 116.301 21.272 116.578 23.192H110.274C110.168 22.7013 109.944 22.328 109.602 22.072C109.261 21.7947 108.802 21.656 108.226 21.656C107.864 21.656 107.586 21.7307 107.394 21.88C107.202 22.008 107.106 22.2107 107.106 22.488C107.106 22.8507 107.33 23.128 107.778 23.32C108.226 23.4907 108.941 23.672 109.922 23.864C111.224 24.12 112.322 24.408 113.218 24.728C114.114 25.048 114.893 25.6027 115.554 26.392C116.216 27.16 116.546 28.2267 116.546 29.592C116.546 30.6587 116.237 31.6187 115.618 32.472C115 33.3253 114.104 33.9973 112.93 34.488C111.778 34.9787 110.424 35.224 108.866 35.224Z" fill="black"/>
</svg>
