<svg width="371" height="100" viewBox="0 0 371 100" fill="none" xmlns="http://www.w3.org/2000/svg">
<mask id="path-1-inside-1_318_58" fill="white">
<path d="M0 0H100V100H0V0Z"/>
</mask>
<path d="M0 0V-1H-1V0H0ZM0 100H-1V101H0V100ZM0 1H100V-1H0V1ZM100 99H0V101H100V99ZM1 100V0H-1V100H1Z" fill="white" mask="url(#path-1-inside-1_318_58)"/>
<path fill-rule="evenodd" clip-rule="evenodd" d="M56 27C61.5228 27 66 22.5228 66 17C66 11.4772 61.5228 7 56 7C50.4772 7 46 11.4772 46 17C46 22.5228 50.4772 27 56 27ZM35 33H46H48H66V93H46V51H35V33Z" fill="#D9D9D9"/>
<path d="M96.9466 74V39.0909H102.31V74H96.9466ZM99.6739 33.2727C98.6284 33.2727 97.7269 32.9167 96.9693 32.2045C96.2269 31.4924 95.8557 30.6364 95.8557 29.6364C95.8557 28.6364 96.2269 27.7803 96.9693 27.0682C97.7269 26.3561 98.6284 26 99.6739 26C100.719 26 101.613 26.3561 102.356 27.0682C103.113 27.7803 103.492 28.6364 103.492 29.6364C103.492 30.6364 103.113 31.4924 102.356 32.2045C101.613 32.9167 100.719 33.2727 99.6739 33.2727ZM123.898 53V74H118.534V39.0909H123.716V44.5455H124.17C124.989 42.7727 126.231 41.3485 127.898 40.2727C129.564 39.1818 131.716 38.6364 134.352 38.6364C136.716 38.6364 138.784 39.1212 140.557 40.0909C142.33 41.0455 143.708 42.5 144.693 44.4545C145.678 46.3939 146.17 48.8485 146.17 51.8182V74H140.807V52.1818C140.807 49.4394 140.095 47.303 138.67 45.7727C137.246 44.2273 135.292 43.4545 132.807 43.4545C131.095 43.4545 129.564 43.8258 128.216 44.5682C126.883 45.3106 125.83 46.3939 125.057 47.8182C124.284 49.2424 123.898 50.9697 123.898 53ZM187.099 46.9091L182.281 48.2727C181.978 47.4697 181.531 46.6894 180.94 45.9318C180.364 45.1591 179.576 44.5227 178.576 44.0227C177.576 43.5227 176.296 43.2727 174.735 43.2727C172.599 43.2727 170.819 43.7652 169.394 44.75C167.985 45.7197 167.281 46.9545 167.281 48.4545C167.281 49.7879 167.766 50.8409 168.735 51.6136C169.705 52.3864 171.22 53.0303 173.281 53.5455L178.463 54.8182C181.584 55.5758 183.909 56.7348 185.44 58.2955C186.97 59.8409 187.735 61.8333 187.735 64.2727C187.735 66.2727 187.159 68.0606 186.008 69.6364C184.872 71.2121 183.281 72.4545 181.235 73.3636C179.19 74.2727 176.811 74.7273 174.099 74.7273C170.538 74.7273 167.591 73.9545 165.258 72.4091C162.925 70.8636 161.447 68.6061 160.826 65.6364L165.917 64.3636C166.402 66.2424 167.319 67.6515 168.667 68.5909C170.031 69.5303 171.811 70 174.008 70C176.508 70 178.493 69.4697 179.963 68.4091C181.447 67.3333 182.19 66.0455 182.19 64.5455C182.19 63.3333 181.766 62.3182 180.917 61.5C180.069 60.6667 178.766 60.0455 177.008 59.6364L171.19 58.2727C167.993 57.5152 165.644 56.3409 164.144 54.75C162.659 53.1439 161.917 51.1364 161.917 48.7273C161.917 46.7576 162.47 45.0152 163.576 43.5C164.697 41.9848 166.22 40.7955 168.144 39.9318C170.084 39.0682 172.281 38.6364 174.735 38.6364C178.19 38.6364 180.902 39.3939 182.872 40.9091C184.856 42.4242 186.266 44.4242 187.099 46.9091ZM202.209 74V39.0909H207.573V74H202.209ZM204.936 33.2727C203.891 33.2727 202.989 32.9167 202.232 32.2045C201.489 31.4924 201.118 30.6364 201.118 29.6364C201.118 28.6364 201.489 27.7803 202.232 27.0682C202.989 26.3561 203.891 26 204.936 26C205.982 26 206.876 26.3561 207.618 27.0682C208.376 27.7803 208.755 28.6364 208.755 29.6364C208.755 30.6364 208.376 31.4924 207.618 32.2045C206.876 32.9167 205.982 33.2727 204.936 33.2727ZM237.888 87.8182C235.297 87.8182 233.069 87.4848 231.206 86.8182C229.342 86.1667 227.789 85.303 226.547 84.2273C225.319 83.1667 224.342 82.0303 223.615 80.8182L227.888 77.8182C228.372 78.4545 228.986 79.1818 229.728 80C230.471 80.8333 231.486 81.553 232.774 82.1591C234.077 82.7803 235.781 83.0909 237.888 83.0909C240.706 83.0909 243.031 82.4091 244.865 81.0455C246.698 79.6818 247.615 77.5455 247.615 74.6364V67.5455H247.16C246.766 68.1818 246.206 68.9697 245.478 69.9091C244.766 70.8333 243.736 71.6591 242.388 72.3864C241.054 73.0985 239.251 73.4545 236.978 73.4545C234.16 73.4545 231.63 72.7879 229.388 71.4545C227.16 70.1212 225.395 68.1818 224.092 65.6364C222.804 63.0909 222.16 60 222.16 56.3636C222.16 52.7879 222.789 49.6742 224.047 47.0227C225.304 44.3561 227.054 42.2955 229.297 40.8409C231.539 39.3712 234.13 38.6364 237.069 38.6364C239.342 38.6364 241.145 39.0152 242.478 39.7727C243.827 40.5152 244.857 41.3636 245.569 42.3182C246.297 43.2576 246.857 44.0303 247.251 44.6364H247.797V39.0909H252.978V75C252.978 78 252.297 80.4394 250.933 82.3182C249.584 84.2121 247.766 85.5985 245.478 86.4773C243.206 87.3712 240.675 87.8182 237.888 87.8182ZM237.706 68.6364C239.857 68.6364 241.675 68.1439 243.16 67.1591C244.645 66.1742 245.774 64.7576 246.547 62.9091C247.319 61.0606 247.706 58.8485 247.706 56.2727C247.706 53.7576 247.327 51.5379 246.569 49.6136C245.812 47.6894 244.691 46.1818 243.206 45.0909C241.721 44 239.888 43.4545 237.706 43.4545C235.433 43.4545 233.539 44.0303 232.024 45.1818C230.524 46.3333 229.395 47.8788 228.638 49.8182C227.895 51.7576 227.524 53.9091 227.524 56.2727C227.524 58.697 227.903 60.8409 228.66 62.7045C229.433 64.553 230.569 66.0076 232.069 67.0682C233.584 68.1136 235.463 68.6364 237.706 68.6364ZM274.56 53V74H269.197V27.4545H274.56V44.5455H275.015C275.833 42.7424 277.06 41.3106 278.697 40.25C280.348 39.1742 282.545 38.6364 285.288 38.6364C287.666 38.6364 289.75 39.1136 291.538 40.0682C293.325 41.0076 294.712 42.4545 295.697 44.4091C296.697 46.3485 297.197 48.8182 297.197 51.8182V74H291.833V52.1818C291.833 49.4091 291.113 47.2652 289.674 45.75C288.25 44.2197 286.272 43.4545 283.742 43.4545C281.984 43.4545 280.409 43.8258 279.015 44.5682C277.636 45.3106 276.545 46.3939 275.742 47.8182C274.954 49.2424 274.56 50.9697 274.56 53ZM328.591 39.0909V43.6364H310.5V39.0909H328.591ZM315.773 30.7273H321.136V64C321.136 65.5152 321.356 66.6515 321.795 67.4091C322.25 68.1515 322.826 68.6515 323.523 68.9091C324.235 69.1515 324.985 69.2727 325.773 69.2727C326.364 69.2727 326.848 69.2424 327.227 69.1818C327.606 69.1061 327.909 69.0455 328.136 69L329.227 73.8182C328.864 73.9545 328.356 74.0909 327.705 74.2273C327.053 74.3788 326.227 74.4545 325.227 74.4545C323.712 74.4545 322.227 74.1288 320.773 73.4773C319.333 72.8258 318.136 71.8333 317.182 70.5C316.242 69.1667 315.773 67.4848 315.773 65.4545V30.7273ZM367.161 46.9091L362.343 48.2727C362.04 47.4697 361.593 46.6894 361.002 45.9318C360.427 45.1591 359.639 44.5227 358.639 44.0227C357.639 43.5227 356.358 43.2727 354.798 43.2727C352.661 43.2727 350.881 43.7652 349.457 44.75C348.048 45.7197 347.343 46.9545 347.343 48.4545C347.343 49.7879 347.828 50.8409 348.798 51.6136C349.767 52.3864 351.283 53.0303 353.343 53.5455L358.525 54.8182C361.646 55.5758 363.972 56.7348 365.502 58.2955C367.033 59.8409 367.798 61.8333 367.798 64.2727C367.798 66.2727 367.222 68.0606 366.07 69.6364C364.934 71.2121 363.343 72.4545 361.298 73.3636C359.252 74.2727 356.873 74.7273 354.161 74.7273C350.601 74.7273 347.654 73.9545 345.32 72.4091C342.987 70.8636 341.51 68.6061 340.889 65.6364L345.98 64.3636C346.464 66.2424 347.381 67.6515 348.73 68.5909C350.093 69.5303 351.873 70 354.07 70C356.57 70 358.555 69.4697 360.025 68.4091C361.51 67.3333 362.252 66.0455 362.252 64.5455C362.252 63.3333 361.828 62.3182 360.98 61.5C360.131 60.6667 358.828 60.0455 357.07 59.6364L351.252 58.2727C348.055 57.5152 345.707 56.3409 344.207 54.75C342.722 53.1439 341.98 51.1364 341.98 48.7273C341.98 46.7576 342.533 45.0152 343.639 43.5C344.76 41.9848 346.283 40.7955 348.207 39.9318C350.146 39.0682 352.343 38.6364 354.798 38.6364C358.252 38.6364 360.964 39.3939 362.934 40.9091C364.919 42.4242 366.328 44.4242 367.161 46.9091Z" fill="white"/>
<line x1="99.5" y1="89" x2="99.5" y2="99" stroke="white"/>
<line x1="99.5" y1="1" x2="99.5" y2="11" stroke="white"/>
</svg>
