<svg width="358" height="144" viewBox="0 0 358 144" fill="none" xmlns="http://www.w3.org/2000/svg">
<path d="M15.5833 47.536C11.8713 47.536 8.89525 46.544 6.65525 44.56C4.41525 42.576 3.29525 40.08 3.29525 37.072C3.29525 34 4.41525 31.472 6.65525 29.488C8.89525 27.44 11.8713 26.416 15.5833 26.416C19.2313 26.416 22.1753 27.44 24.4153 29.488C26.6553 31.472 27.7753 34 27.7753 37.072C27.7753 40.08 26.6553 42.576 24.4153 44.56C22.1753 46.544 19.2313 47.536 15.5833 47.536ZM26.1433 51.856V106H4.83125V51.856H26.1433Z" fill="white"/>
<path d="M65.7513 51.472C71.9593 51.472 76.7913 53.552 80.2473 57.712C83.7673 61.872 85.5273 67.504 85.5273 74.608V106H64.3113V77.296C64.3113 74.736 63.6073 72.72 62.1993 71.248C60.8553 69.712 59.0313 68.944 56.7273 68.944C54.3593 68.944 52.5033 69.712 51.1593 71.248C49.8153 72.72 49.1433 74.736 49.1433 77.296V106H27.8313V51.856H49.1433V60.112C50.8073 57.552 53.0153 55.472 55.7673 53.872C58.5833 52.272 61.9113 51.472 65.7513 51.472Z" fill="white"/>
<path d="M109.099 106.672C103.979 106.672 99.4351 105.84 95.4671 104.176C91.5631 102.512 88.4591 100.208 86.1551 97.264C83.8511 94.32 82.5391 90.992 82.2191 87.28H102.667C102.923 88.88 103.595 90.064 104.683 90.832C105.835 91.6 107.275 91.984 109.003 91.984C110.091 91.984 110.955 91.76 111.595 91.312C112.235 90.8 112.555 90.192 112.555 89.488C112.555 88.272 111.883 87.408 110.539 86.896C109.195 86.384 106.923 85.808 103.723 85.168C99.8191 84.4 96.5871 83.568 94.0271 82.672C91.5311 81.776 89.3231 80.24 87.4031 78.064C85.5471 75.888 84.6191 72.88 84.6191 69.04C84.6191 65.712 85.4831 62.704 87.2111 60.016C89.0031 57.264 91.6271 55.12 95.0831 53.584C98.5391 51.984 102.731 51.184 107.659 51.184C114.955 51.184 120.651 52.976 124.747 56.56C128.907 60.144 131.403 64.816 132.235 70.576H113.323C113.003 69.104 112.331 67.984 111.307 67.216C110.283 66.384 108.907 65.968 107.179 65.968C106.091 65.968 105.259 66.192 104.683 66.64C104.107 67.024 103.819 67.632 103.819 68.464C103.819 69.552 104.491 70.384 105.835 70.96C107.179 71.472 109.323 72.016 112.267 72.592C116.171 73.36 119.467 74.224 122.155 75.184C124.843 76.144 127.179 77.808 129.163 80.176C131.147 82.48 132.139 85.68 132.139 89.776C132.139 92.976 131.211 95.856 129.355 98.416C127.499 100.976 124.811 102.992 121.291 104.464C117.835 105.936 113.771 106.672 109.099 106.672Z" fill="white"/>
<path d="M142.583 47.536C138.871 47.536 135.895 46.544 133.655 44.56C131.415 42.576 130.295 40.08 130.295 37.072C130.295 34 131.415 31.472 133.655 29.488C135.895 27.44 138.871 26.416 142.583 26.416C146.231 26.416 149.175 27.44 151.415 29.488C153.655 31.472 154.775 34 154.775 37.072C154.775 40.08 153.655 42.576 151.415 44.56C149.175 46.544 146.231 47.536 142.583 47.536ZM153.143 51.856V106H131.831V51.856H153.143Z" fill="white"/>
<path d="M174.663 51.184C178.183 51.184 181.223 51.92 183.783 53.392C186.343 54.8 188.295 56.752 189.639 59.248V51.856H210.855V105.04C210.855 110.096 209.927 114.704 208.071 118.864C206.215 123.024 203.207 126.352 199.047 128.848C194.951 131.344 189.671 132.592 183.207 132.592C174.503 132.592 167.591 130.544 162.471 126.448C157.415 122.416 154.535 116.912 153.831 109.936H174.759C175.335 112.752 177.639 114.16 181.671 114.16C184.167 114.16 186.119 113.52 187.527 112.24C188.935 110.96 189.639 108.56 189.639 105.04V98.608C188.295 101.104 186.343 103.088 183.783 104.56C181.223 105.968 178.183 106.672 174.663 106.672C170.439 106.672 166.631 105.584 163.239 103.408C159.847 101.168 157.159 97.968 155.175 93.808C153.255 89.584 152.295 84.624 152.295 78.928C152.295 73.232 153.255 68.304 155.175 64.144C157.159 59.92 159.847 56.72 163.239 54.544C166.631 52.304 170.439 51.184 174.663 51.184ZM189.639 78.928C189.639 76.048 188.903 73.808 187.431 72.208C185.959 70.608 184.071 69.808 181.767 69.808C179.463 69.808 177.575 70.608 176.103 72.208C174.631 73.808 173.895 76.048 173.895 78.928C173.895 81.808 174.631 84.048 176.103 85.648C177.575 87.248 179.463 88.048 181.767 88.048C184.071 88.048 185.959 87.248 187.431 85.648C188.903 84.048 189.639 81.808 189.639 78.928Z" fill="white"/>
<path d="M250.751 51.472C256.959 51.472 261.791 53.552 265.247 57.712C268.767 61.872 270.527 67.504 270.527 74.608V106H249.311V77.296C249.311 74.736 248.607 72.72 247.199 71.248C245.855 69.712 244.031 68.944 241.727 68.944C239.359 68.944 237.503 69.712 236.159 71.248C234.815 72.72 234.143 74.736 234.143 77.296V106H212.831V34.96H234.143V60.112C235.807 57.552 238.015 55.472 240.767 53.872C243.583 52.272 246.911 51.472 250.751 51.472Z" fill="white"/>
<path d="M270.41 87.856V106H278.474C293.322 106 300.746 98.608 300.746 83.824V69.616H307.466V51.856H300.746V38.8H279.434V51.856H270.602V69.616H279.434V84.208C279.434 85.488 279.146 86.416 278.57 86.992C277.93 87.568 276.906 87.856 275.498 87.856H270.41Z" fill="white"/>
<path d="M331.099 106.672C325.979 106.672 321.435 105.84 317.467 104.176C313.563 102.512 310.459 100.208 308.155 97.264C305.851 94.32 304.539 90.992 304.219 87.28H324.667C324.923 88.88 325.595 90.064 326.683 90.832C327.835 91.6 329.275 91.984 331.003 91.984C332.091 91.984 332.955 91.76 333.595 91.312C334.235 90.8 334.555 90.192 334.555 89.488C334.555 88.272 333.883 87.408 332.539 86.896C331.195 86.384 328.923 85.808 325.723 85.168C321.819 84.4 318.587 83.568 316.027 82.672C313.531 81.776 311.323 80.24 309.403 78.064C307.547 75.888 306.619 72.88 306.619 69.04C306.619 65.712 307.483 62.704 309.211 60.016C311.003 57.264 313.627 55.12 317.083 53.584C320.539 51.984 324.731 51.184 329.659 51.184C336.955 51.184 342.651 52.976 346.747 56.56C350.907 60.144 353.403 64.816 354.235 70.576H335.323C335.003 69.104 334.331 67.984 333.307 67.216C332.283 66.384 330.907 65.968 329.179 65.968C328.091 65.968 327.259 66.192 326.683 66.64C326.107 67.024 325.819 67.632 325.819 68.464C325.819 69.552 326.491 70.384 327.835 70.96C329.179 71.472 331.323 72.016 334.267 72.592C338.171 73.36 341.467 74.224 344.155 75.184C346.843 76.144 349.179 77.808 351.163 80.176C353.147 82.48 354.139 85.68 354.139 89.776C354.139 92.976 353.211 95.856 351.355 98.416C349.499 100.976 346.811 102.992 343.291 104.464C339.835 105.936 335.771 106.672 331.099 106.672Z" fill="white"/>
</svg>
